SplineFontDB: 3.0
FontName: DSEG7Classic-Italic
FullName: DSEG7 Classic-Italic
FamilyName: DSEG7 Classic
Weight: Book
Copyright: Created by Keshikan\nwith FontForge 2.0 (http://fontforge.sf.net)
Version: 0.2
ItalicAngle: -5
UnderlinePosition: -100
UnderlineWidth: 50
Ascent: 1000
Descent: 0
sfntRevision: 0x00003333
LayerCount: 2
Layer: 0 1 "Back"  1
Layer: 1 1 "Fore"  0
XUID: [1021 122 1698311575 5175027]
FSType: 8
OS2Version: 4
OS2_WeightWidthSlopeOnly: 0
OS2_UseTypoMetrics: 1
CreationTime: 1409488158
ModificationTime: 1506287521
PfmFamily: 17
TTFWeight: 400
TTFWidth: 5
LineGap: 90
VLineGap: 0
Panose: 2 0 5 3 0 0 0 0 0 0
OS2TypoAscent: 1000
OS2TypoAOffset: 0
OS2TypoDescent: 0
OS2TypoDOffset: 0
OS2TypoLinegap: 90
OS2WinAscent: 1000
OS2WinAOffset: 0
OS2WinDescent: 0
OS2WinDOffset: 0
HheadAscent: 1000
HheadAOffset: 0
HheadDescent: 0
HheadDOffset: 0
OS2SubXSize: 650
OS2SubYSize: 700
OS2SubXOff: 12
OS2SubYOff: 140
OS2SupXSize: 650
OS2SupYSize: 700
OS2SupXOff: -41
OS2SupYOff: 480
OS2StrikeYSize: 49
OS2StrikeYPos: 258
OS2Vendor: 'PfEd'
OS2CodePages: 00000001.00000000
OS2UnicodeRanges: 00000001.00000000.00000000.00000000
MarkAttachClasses: 1
DEI: 91125
ShortTable: cvt  2
  33
  633
EndShort
ShortTable: maxp 16
  1
  0
  70
  59
  7
  0
  0
  2
  0
  1
  1
  0
  64
  46
  0
  0
EndShort
LangName: 1033 "" "" "" "FontForge 2.0 : DSEG7 Classic-Italic : 7-1-2017" "" "Version 0.2" "" "" "" "Keshikan(Twitter:@keshinomi_88pro)" "" "" "http://www.keshikan.net" "" "" "" "" "" "" "DSEG.7 12:34" 
GaspTable: 1 65535 2 0
Encoding: UnicodeBmp
UnicodeInterp: none
NameList: Adobe Glyph List
DisplaySize: -24
AntiAlias: 1
FitToEm: 1
WinInfo: 0 32 14
BeginChars: 65539 75

StartChar: .notdef
Encoding: 65536 -1 0
Width: 364
Flags: W
LayerCount: 2
Fore
SplineSet
33 0 m 1,0,-1
 33 666 l 1,1,-1
 298 666 l 1,2,-1
 298 0 l 1,3,-1
 33 0 l 1,0,-1
66 33 m 1,4,-1
 265 33 l 1,5,-1
 265 633 l 1,6,-1
 66 633 l 1,7,-1
 66 33 l 1,4,-1
EndSplineSet
Validated: 1
EndChar

StartChar: hyphen
Encoding: 45 45 5
Width: 816
GlyphClass: 2
Flags: W
LayerCount: 2
Fore
SplineSet
671 499 m 1,0,-1
 620 453 l 1,1,-1
 620 454 l 1,2,-1
 188 454 l 1,3,-1
 188 453 l 1,4,-1
 144 500 l 1,5,-1
 196 547 l 1,6,-1
 196 546 l 1,7,-1
 628 546 l 1,8,-1
 671 499 l 1,0,-1
EndSplineSet
Validated: 1
EndChar

StartChar: period
Encoding: 46 46 6
Width: 0
GlyphClass: 2
Flags: W
LayerCount: 2
Fore
SplineSet
18 62 m 128,-1,1
 18 50 18 50 13 38 c 128,-1,2
 8 26 8 26 0 18 c 128,-1,3
 -8 10 -8 10 -20 5 c 128,-1,4
 -32 0 -32 0 -44 0 c 128,-1,5
 -56 0 -56 0 -68 5 c 128,-1,6
 -80 10 -80 10 -88 18 c 128,-1,7
 -96 26 -96 26 -101 38 c 128,-1,8
 -106 50 -106 50 -106 62 c 128,-1,9
 -106 74 -106 74 -101 86 c 128,-1,10
 -96 98 -96 98 -88 106 c 128,-1,11
 -80 114 -80 114 -68 119 c 128,-1,12
 -56 124 -56 124 -44 124 c 128,-1,13
 -32 124 -32 124 -20 119 c 128,-1,14
 -8 114 -8 114 0 106 c 128,-1,15
 8 98 8 98 13 86 c 128,-1,0
 18 74 18 74 18 62 c 128,-1,1
EndSplineSet
Validated: 1
EndChar

StartChar: zero
Encoding: 48 48 7
Width: 816
GlyphClass: 2
Flags: W
LayerCount: 2
Fore
SplineSet
90 45 m 1,0,-1
 62 76 l 1,1,-1
 98 490 l 1,2,-1
 125 490 l 1,3,-1
 129 485 l 1,4,-1
 185 424 l 1,5,-1
 157 107 l 1,6,-1
 90 45 l 1,0,-1
131 515 m 1,7,-1
 127 510 l 1,8,-1
 100 510 l 1,9,-1
 136 924 l 1,10,-1
 170 955 l 1,11,-1
 226 893 l 1,12,-1
 198 576 l 1,13,-1
 131 515 l 1,7,-1
185 969 m 1,14,-1
 219 1000 l 1,15,-1
 684 1000 l 1,16,-1
 713 969 l 1,17,-1
 645 907 l 1,18,-1
 242 907 l 1,19,-1
 185 969 l 1,14,-1
684 485 m 1,20,-1
 689 489 l 1,21,-1
 716 489 l 1,22,-1
 680 76 l 1,23,-1
 646 45 l 1,24,-1
 590 107 l 1,25,-1
 618 424 l 1,26,-1
 684 485 l 1,20,-1
726 955 m 1,27,-1
 754 924 l 1,28,-1
 718 510 l 1,29,-1
 691 510 l 1,30,-1
 687 514 l 1,31,-1
 631 575 l 1,32,-1
 659 893 l 1,33,-1
 726 955 l 1,27,-1
631 31 m 1,34,-1
 597 0 l 1,35,-1
 132 0 l 1,36,-1
 103 31 l 1,37,-1
 171 93 l 1,38,-1
 574 93 l 1,39,-1
 631 31 l 1,34,-1
EndSplineSet
Validated: 1
EndChar

StartChar: one
Encoding: 49 49 8
Width: 816
GlyphClass: 2
Flags: W
LayerCount: 2
Fore
SplineSet
684 485 m 1,0,-1
 689 489 l 1,1,-1
 716 489 l 1,2,-1
 680 76 l 1,3,-1
 646 45 l 1,4,-1
 590 107 l 1,5,-1
 618 424 l 1,6,-1
 684 485 l 1,0,-1
726 955 m 1,7,-1
 754 924 l 1,8,-1
 718 510 l 1,9,-1
 691 510 l 1,10,-1
 687 514 l 1,11,-1
 631 575 l 1,12,-1
 659 893 l 1,13,-1
 726 955 l 1,7,-1
EndSplineSet
Validated: 1
EndChar

StartChar: two
Encoding: 50 50 9
Width: 816
GlyphClass: 2
Flags: W
LayerCount: 2
Fore
SplineSet
90 45 m 1,0,-1
 62 76 l 1,1,-1
 98 490 l 1,2,-1
 125 490 l 1,3,-1
 129 485 l 1,4,-1
 185 424 l 1,5,-1
 157 107 l 1,6,-1
 90 45 l 1,0,-1
185 969 m 1,7,-1
 219 1000 l 1,8,-1
 684 1000 l 1,9,-1
 713 969 l 1,10,-1
 645 907 l 1,11,-1
 242 907 l 1,12,-1
 185 969 l 1,7,-1
671 499 m 1,13,-1
 620 453 l 1,14,-1
 620 454 l 1,15,-1
 188 454 l 1,16,-1
 188 453 l 1,17,-1
 144 500 l 1,18,-1
 196 547 l 1,19,-1
 196 546 l 1,20,-1
 628 546 l 1,21,-1
 671 499 l 1,13,-1
726 955 m 1,22,-1
 754 924 l 1,23,-1
 718 510 l 1,24,-1
 691 510 l 1,25,-1
 687 514 l 1,26,-1
 631 575 l 1,27,-1
 659 893 l 1,28,-1
 726 955 l 1,22,-1
631 31 m 1,29,-1
 597 0 l 1,30,-1
 132 0 l 1,31,-1
 103 31 l 1,32,-1
 171 93 l 1,33,-1
 574 93 l 1,34,-1
 631 31 l 1,29,-1
EndSplineSet
Validated: 1
EndChar

StartChar: three
Encoding: 51 51 10
Width: 816
GlyphClass: 2
Flags: W
LayerCount: 2
Fore
SplineSet
185 969 m 1,0,-1
 219 1000 l 1,1,-1
 684 1000 l 1,2,-1
 713 969 l 1,3,-1
 645 907 l 1,4,-1
 242 907 l 1,5,-1
 185 969 l 1,0,-1
671 499 m 1,6,-1
 620 453 l 1,7,-1
 620 454 l 1,8,-1
 188 454 l 1,9,-1
 188 453 l 1,10,-1
 144 500 l 1,11,-1
 196 547 l 1,12,-1
 196 546 l 1,13,-1
 628 546 l 1,14,-1
 671 499 l 1,6,-1
684 485 m 1,15,-1
 689 489 l 1,16,-1
 716 489 l 1,17,-1
 680 76 l 1,18,-1
 646 45 l 1,19,-1
 590 107 l 1,20,-1
 618 424 l 1,21,-1
 684 485 l 1,15,-1
726 955 m 1,22,-1
 754 924 l 1,23,-1
 718 510 l 1,24,-1
 691 510 l 1,25,-1
 687 514 l 1,26,-1
 631 575 l 1,27,-1
 659 893 l 1,28,-1
 726 955 l 1,22,-1
631 31 m 1,29,-1
 597 0 l 1,30,-1
 132 0 l 1,31,-1
 103 31 l 1,32,-1
 171 93 l 1,33,-1
 574 93 l 1,34,-1
 631 31 l 1,29,-1
EndSplineSet
Validated: 1
EndChar

StartChar: four
Encoding: 52 52 11
Width: 816
GlyphClass: 2
Flags: W
LayerCount: 2
Fore
SplineSet
131 515 m 1,0,-1
 127 510 l 1,1,-1
 100 510 l 1,2,-1
 136 924 l 1,3,-1
 170 955 l 1,4,-1
 226 893 l 1,5,-1
 198 576 l 1,6,-1
 131 515 l 1,0,-1
671 499 m 1,7,-1
 620 453 l 1,8,-1
 620 454 l 1,9,-1
 188 454 l 1,10,-1
 188 453 l 1,11,-1
 144 500 l 1,12,-1
 196 547 l 1,13,-1
 196 546 l 1,14,-1
 628 546 l 1,15,-1
 671 499 l 1,7,-1
684 485 m 1,16,-1
 689 489 l 1,17,-1
 716 489 l 1,18,-1
 680 76 l 1,19,-1
 646 45 l 1,20,-1
 590 107 l 1,21,-1
 618 424 l 1,22,-1
 684 485 l 1,16,-1
726 955 m 1,23,-1
 754 924 l 1,24,-1
 718 510 l 1,25,-1
 691 510 l 1,26,-1
 687 514 l 1,27,-1
 631 575 l 1,28,-1
 659 893 l 1,29,-1
 726 955 l 1,23,-1
EndSplineSet
Validated: 1
EndChar

StartChar: five
Encoding: 53 53 12
Width: 816
GlyphClass: 2
Flags: W
LayerCount: 2
Fore
SplineSet
131 515 m 1,0,-1
 127 510 l 1,1,-1
 100 510 l 1,2,-1
 136 924 l 1,3,-1
 170 955 l 1,4,-1
 226 893 l 1,5,-1
 198 576 l 1,6,-1
 131 515 l 1,0,-1
185 969 m 1,7,-1
 219 1000 l 1,8,-1
 684 1000 l 1,9,-1
 713 969 l 1,10,-1
 645 907 l 1,11,-1
 242 907 l 1,12,-1
 185 969 l 1,7,-1
671 499 m 1,13,-1
 620 453 l 1,14,-1
 620 454 l 1,15,-1
 188 454 l 1,16,-1
 188 453 l 1,17,-1
 144 500 l 1,18,-1
 196 547 l 1,19,-1
 196 546 l 1,20,-1
 628 546 l 1,21,-1
 671 499 l 1,13,-1
684 485 m 1,22,-1
 689 489 l 1,23,-1
 716 489 l 1,24,-1
 680 76 l 1,25,-1
 646 45 l 1,26,-1
 590 107 l 1,27,-1
 618 424 l 1,28,-1
 684 485 l 1,22,-1
631 31 m 1,29,-1
 597 0 l 1,30,-1
 132 0 l 1,31,-1
 103 31 l 1,32,-1
 171 93 l 1,33,-1
 574 93 l 1,34,-1
 631 31 l 1,29,-1
EndSplineSet
Validated: 1
EndChar

StartChar: six
Encoding: 54 54 13
Width: 816
GlyphClass: 2
Flags: W
LayerCount: 2
Fore
SplineSet
90 45 m 1,0,-1
 62 76 l 1,1,-1
 98 490 l 1,2,-1
 125 490 l 1,3,-1
 129 485 l 1,4,-1
 185 424 l 1,5,-1
 157 107 l 1,6,-1
 90 45 l 1,0,-1
131 515 m 1,7,-1
 127 510 l 1,8,-1
 100 510 l 1,9,-1
 136 924 l 1,10,-1
 170 955 l 1,11,-1
 226 893 l 1,12,-1
 198 576 l 1,13,-1
 131 515 l 1,7,-1
185 969 m 1,14,-1
 219 1000 l 1,15,-1
 684 1000 l 1,16,-1
 713 969 l 1,17,-1
 645 907 l 1,18,-1
 242 907 l 1,19,-1
 185 969 l 1,14,-1
671 499 m 1,20,-1
 620 453 l 1,21,-1
 620 454 l 1,22,-1
 188 454 l 1,23,-1
 188 453 l 1,24,-1
 144 500 l 1,25,-1
 196 547 l 1,26,-1
 196 546 l 1,27,-1
 628 546 l 1,28,-1
 671 499 l 1,20,-1
684 485 m 1,29,-1
 689 489 l 1,30,-1
 716 489 l 1,31,-1
 680 76 l 1,32,-1
 646 45 l 1,33,-1
 590 107 l 1,34,-1
 618 424 l 1,35,-1
 684 485 l 1,29,-1
631 31 m 1,36,-1
 597 0 l 1,37,-1
 132 0 l 1,38,-1
 103 31 l 1,39,-1
 171 93 l 1,40,-1
 574 93 l 1,41,-1
 631 31 l 1,36,-1
EndSplineSet
Validated: 1
EndChar

StartChar: seven
Encoding: 55 55 14
Width: 816
GlyphClass: 2
Flags: W
LayerCount: 2
Fore
SplineSet
185 969 m 1,0,-1
 219 1000 l 1,1,-1
 684 1000 l 1,2,-1
 713 969 l 1,3,-1
 645 907 l 1,4,-1
 242 907 l 1,5,-1
 185 969 l 1,0,-1
684 485 m 1,6,-1
 689 489 l 1,7,-1
 716 489 l 1,8,-1
 680 76 l 1,9,-1
 646 45 l 1,10,-1
 590 107 l 1,11,-1
 618 424 l 1,12,-1
 684 485 l 1,6,-1
726 955 m 1,13,-1
 754 924 l 1,14,-1
 718 510 l 1,15,-1
 691 510 l 1,16,-1
 687 514 l 1,17,-1
 631 575 l 1,18,-1
 659 893 l 1,19,-1
 726 955 l 1,13,-1
EndSplineSet
Validated: 1
EndChar

StartChar: eight
Encoding: 56 56 15
Width: 816
GlyphClass: 2
Flags: W
LayerCount: 2
Fore
SplineSet
90 45 m 1,0,-1
 62 76 l 1,1,-1
 98 490 l 1,2,-1
 125 490 l 1,3,-1
 129 485 l 1,4,-1
 185 424 l 1,5,-1
 157 107 l 1,6,-1
 90 45 l 1,0,-1
131 515 m 1,7,-1
 127 510 l 1,8,-1
 100 510 l 1,9,-1
 136 924 l 1,10,-1
 170 955 l 1,11,-1
 226 893 l 1,12,-1
 198 576 l 1,13,-1
 131 515 l 1,7,-1
185 969 m 1,14,-1
 219 1000 l 1,15,-1
 684 1000 l 1,16,-1
 713 969 l 1,17,-1
 645 907 l 1,18,-1
 242 907 l 1,19,-1
 185 969 l 1,14,-1
671 499 m 1,20,-1
 620 453 l 1,21,-1
 620 454 l 1,22,-1
 188 454 l 1,23,-1
 188 453 l 1,24,-1
 144 500 l 1,25,-1
 196 547 l 1,26,-1
 196 546 l 1,27,-1
 628 546 l 1,28,-1
 671 499 l 1,20,-1
684 485 m 1,29,-1
 689 489 l 1,30,-1
 716 489 l 1,31,-1
 680 76 l 1,32,-1
 646 45 l 1,33,-1
 590 107 l 1,34,-1
 618 424 l 1,35,-1
 684 485 l 1,29,-1
726 955 m 1,36,-1
 754 924 l 1,37,-1
 718 510 l 1,38,-1
 691 510 l 1,39,-1
 687 514 l 1,40,-1
 631 575 l 1,41,-1
 659 893 l 1,42,-1
 726 955 l 1,36,-1
631 31 m 1,43,-1
 597 0 l 1,44,-1
 132 0 l 1,45,-1
 103 31 l 1,46,-1
 171 93 l 1,47,-1
 574 93 l 1,48,-1
 631 31 l 1,43,-1
EndSplineSet
Validated: 1
EndChar

StartChar: nine
Encoding: 57 57 16
Width: 816
GlyphClass: 2
Flags: W
LayerCount: 2
Fore
SplineSet
131 515 m 1,0,-1
 127 510 l 1,1,-1
 100 510 l 1,2,-1
 136 924 l 1,3,-1
 170 955 l 1,4,-1
 226 893 l 1,5,-1
 198 576 l 1,6,-1
 131 515 l 1,0,-1
185 969 m 1,7,-1
 219 1000 l 1,8,-1
 684 1000 l 1,9,-1
 713 969 l 1,10,-1
 645 907 l 1,11,-1
 242 907 l 1,12,-1
 185 969 l 1,7,-1
671 499 m 1,13,-1
 620 453 l 1,14,-1
 620 454 l 1,15,-1
 188 454 l 1,16,-1
 188 453 l 1,17,-1
 144 500 l 1,18,-1
 196 547 l 1,19,-1
 196 546 l 1,20,-1
 628 546 l 1,21,-1
 671 499 l 1,13,-1
684 485 m 1,22,-1
 689 489 l 1,23,-1
 716 489 l 1,24,-1
 680 76 l 1,25,-1
 646 45 l 1,26,-1
 590 107 l 1,27,-1
 618 424 l 1,28,-1
 684 485 l 1,22,-1
726 955 m 1,29,-1
 754 924 l 1,30,-1
 718 510 l 1,31,-1
 691 510 l 1,32,-1
 687 514 l 1,33,-1
 631 575 l 1,34,-1
 659 893 l 1,35,-1
 726 955 l 1,29,-1
631 31 m 1,36,-1
 597 0 l 1,37,-1
 132 0 l 1,38,-1
 103 31 l 1,39,-1
 171 93 l 1,40,-1
 574 93 l 1,41,-1
 631 31 l 1,36,-1
EndSplineSet
Validated: 1
EndChar

StartChar: colon
Encoding: 58 58 17
Width: 200
GlyphClass: 2
Flags: W
LayerCount: 2
Fore
SplineSet
180 693 m 0,0,1
 178 678 178 678 173 669 c 0,2,3
 166 657 166 657 158 649 c 0,4,5
 149 640 149 640 138 636 c 0,6,7
 125 631 125 631 113 631 c 0,8,9
 102 631 102 631 90 636 c 0,10,11
 77 641 77 641 71 649 c 0,12,13
 63 659 63 659 60 669 c 0,14,15
 56 683 56 683 57 693 c 0,16,17
 59 708 59 708 64 717 c 128,-1,18
 69 726 69 726 79 736 c 128,-1,19
 89 746 89 746 100 750 c 128,-1,20
 111 754 111 754 124 754 c 0,21,22
 139 754 139 754 148 750 c 0,23,24
 158 746 158 746 166 736 c 0,25,26
 176 724 176 724 178 717 c 0,27,28
 181 705 181 705 180 693 c 0,0,1
144 281 m 0,29,30
 142 266 142 266 137 257 c 0,31,32
 130 245 130 245 122 237 c 0,33,34
 113 228 113 228 102 224 c 0,35,36
 89 219 89 219 77 219 c 0,37,38
 66 219 66 219 54 224 c 0,39,40
 41 229 41 229 35 237 c 0,41,42
 25 248 25 248 23 257 c 0,43,44
 20 269 20 269 21 281 c 0,45,46
 23 296 23 296 28 305 c 128,-1,47
 33 314 33 314 43 324 c 128,-1,48
 53 334 53 334 63 338 c 0,49,50
 74 342 74 342 88 342 c 0,51,52
 103 342 103 342 112 338 c 0,53,54
 122 334 122 334 130 324 c 0,55,56
 140 312 140 312 142 305 c 0,57,58
 145 293 145 293 144 281 c 0,29,30
EndSplineSet
Validated: 1
EndChar

StartChar: A
Encoding: 65 65 18
Width: 816
GlyphClass: 2
Flags: W
LayerCount: 2
Fore
SplineSet
90 45 m 1,0,-1
 62 76 l 1,1,-1
 98 490 l 1,2,-1
 125 490 l 1,3,-1
 129 485 l 1,4,-1
 185 424 l 1,5,-1
 157 107 l 1,6,-1
 90 45 l 1,0,-1
131 515 m 1,7,-1
 127 510 l 1,8,-1
 100 510 l 1,9,-1
 136 924 l 1,10,-1
 170 955 l 1,11,-1
 226 893 l 1,12,-1
 198 576 l 1,13,-1
 131 515 l 1,7,-1
185 969 m 1,14,-1
 219 1000 l 1,15,-1
 684 1000 l 1,16,-1
 713 969 l 1,17,-1
 645 907 l 1,18,-1
 242 907 l 1,19,-1
 185 969 l 1,14,-1
671 499 m 1,20,-1
 620 453 l 1,21,-1
 620 454 l 1,22,-1
 188 454 l 1,23,-1
 188 453 l 1,24,-1
 144 500 l 1,25,-1
 196 547 l 1,26,-1
 196 546 l 1,27,-1
 628 546 l 1,28,-1
 671 499 l 1,20,-1
684 485 m 1,29,-1
 689 489 l 1,30,-1
 716 489 l 1,31,-1
 680 76 l 1,32,-1
 646 45 l 1,33,-1
 590 107 l 1,34,-1
 618 424 l 1,35,-1
 684 485 l 1,29,-1
726 955 m 1,36,-1
 754 924 l 1,37,-1
 718 510 l 1,38,-1
 691 510 l 1,39,-1
 687 514 l 1,40,-1
 631 575 l 1,41,-1
 659 893 l 1,42,-1
 726 955 l 1,36,-1
EndSplineSet
Validated: 1
EndChar

StartChar: B
Encoding: 66 66 19
Width: 816
GlyphClass: 2
Flags: W
LayerCount: 2
Fore
SplineSet
90 45 m 1,0,-1
 62 76 l 1,1,-1
 98 490 l 1,2,-1
 125 490 l 1,3,-1
 129 485 l 1,4,-1
 185 424 l 1,5,-1
 157 107 l 1,6,-1
 90 45 l 1,0,-1
131 515 m 1,7,-1
 127 510 l 1,8,-1
 100 510 l 1,9,-1
 136 924 l 1,10,-1
 170 955 l 1,11,-1
 226 893 l 1,12,-1
 198 576 l 1,13,-1
 131 515 l 1,7,-1
671 499 m 1,14,-1
 620 453 l 1,15,-1
 620 454 l 1,16,-1
 188 454 l 1,17,-1
 188 453 l 1,18,-1
 144 500 l 1,19,-1
 196 547 l 1,20,-1
 196 546 l 1,21,-1
 628 546 l 1,22,-1
 671 499 l 1,14,-1
684 485 m 1,23,-1
 689 489 l 1,24,-1
 716 489 l 1,25,-1
 680 76 l 1,26,-1
 646 45 l 1,27,-1
 590 107 l 1,28,-1
 618 424 l 1,29,-1
 684 485 l 1,23,-1
631 31 m 1,30,-1
 597 0 l 1,31,-1
 132 0 l 1,32,-1
 103 31 l 1,33,-1
 171 93 l 1,34,-1
 574 93 l 1,35,-1
 631 31 l 1,30,-1
EndSplineSet
Validated: 1
EndChar

StartChar: C
Encoding: 67 67 20
Width: 816
GlyphClass: 2
Flags: W
LayerCount: 2
Fore
SplineSet
90 45 m 1,0,-1
 62 76 l 1,1,-1
 98 490 l 1,2,-1
 125 490 l 1,3,-1
 129 485 l 1,4,-1
 185 424 l 1,5,-1
 157 107 l 1,6,-1
 90 45 l 1,0,-1
131 515 m 1,7,-1
 127 510 l 1,8,-1
 100 510 l 1,9,-1
 136 924 l 1,10,-1
 170 955 l 1,11,-1
 226 893 l 1,12,-1
 198 576 l 1,13,-1
 131 515 l 1,7,-1
185 969 m 1,14,-1
 219 1000 l 1,15,-1
 684 1000 l 1,16,-1
 713 969 l 1,17,-1
 645 907 l 1,18,-1
 242 907 l 1,19,-1
 185 969 l 1,14,-1
631 31 m 1,20,-1
 597 0 l 1,21,-1
 132 0 l 1,22,-1
 103 31 l 1,23,-1
 171 93 l 1,24,-1
 574 93 l 1,25,-1
 631 31 l 1,20,-1
EndSplineSet
Validated: 1
EndChar

StartChar: D
Encoding: 68 68 21
Width: 816
GlyphClass: 2
Flags: W
LayerCount: 2
Fore
SplineSet
90 45 m 1,0,-1
 62 76 l 1,1,-1
 98 490 l 1,2,-1
 125 490 l 1,3,-1
 129 485 l 1,4,-1
 185 424 l 1,5,-1
 157 107 l 1,6,-1
 90 45 l 1,0,-1
671 499 m 1,7,-1
 620 453 l 1,8,-1
 620 454 l 1,9,-1
 188 454 l 1,10,-1
 188 453 l 1,11,-1
 144 500 l 1,12,-1
 196 547 l 1,13,-1
 196 546 l 1,14,-1
 628 546 l 1,15,-1
 671 499 l 1,7,-1
684 485 m 1,16,-1
 689 489 l 1,17,-1
 716 489 l 1,18,-1
 680 76 l 1,19,-1
 646 45 l 1,20,-1
 590 107 l 1,21,-1
 618 424 l 1,22,-1
 684 485 l 1,16,-1
726 955 m 1,23,-1
 754 924 l 1,24,-1
 718 510 l 1,25,-1
 691 510 l 1,26,-1
 687 514 l 1,27,-1
 631 575 l 1,28,-1
 659 893 l 1,29,-1
 726 955 l 1,23,-1
631 31 m 1,30,-1
 597 0 l 1,31,-1
 132 0 l 1,32,-1
 103 31 l 1,33,-1
 171 93 l 1,34,-1
 574 93 l 1,35,-1
 631 31 l 1,30,-1
EndSplineSet
Validated: 1
EndChar

StartChar: E
Encoding: 69 69 22
Width: 816
GlyphClass: 2
Flags: W
LayerCount: 2
Fore
SplineSet
90 45 m 1,0,-1
 62 76 l 1,1,-1
 98 490 l 1,2,-1
 125 490 l 1,3,-1
 129 485 l 1,4,-1
 185 424 l 1,5,-1
 157 107 l 1,6,-1
 90 45 l 1,0,-1
131 515 m 1,7,-1
 127 510 l 1,8,-1
 100 510 l 1,9,-1
 136 924 l 1,10,-1
 170 955 l 1,11,-1
 226 893 l 1,12,-1
 198 576 l 1,13,-1
 131 515 l 1,7,-1
185 969 m 1,14,-1
 219 1000 l 1,15,-1
 684 1000 l 1,16,-1
 713 969 l 1,17,-1
 645 907 l 1,18,-1
 242 907 l 1,19,-1
 185 969 l 1,14,-1
671 499 m 1,20,-1
 620 453 l 1,21,-1
 620 454 l 1,22,-1
 188 454 l 1,23,-1
 188 453 l 1,24,-1
 144 500 l 1,25,-1
 196 547 l 1,26,-1
 196 546 l 1,27,-1
 628 546 l 1,28,-1
 671 499 l 1,20,-1
631 31 m 1,29,-1
 597 0 l 1,30,-1
 132 0 l 1,31,-1
 103 31 l 1,32,-1
 171 93 l 1,33,-1
 574 93 l 1,34,-1
 631 31 l 1,29,-1
EndSplineSet
Validated: 1
EndChar

StartChar: F
Encoding: 70 70 23
Width: 816
GlyphClass: 2
Flags: W
LayerCount: 2
Fore
SplineSet
90 45 m 1,0,-1
 62 76 l 1,1,-1
 98 490 l 1,2,-1
 125 490 l 1,3,-1
 129 485 l 1,4,-1
 185 424 l 1,5,-1
 157 107 l 1,6,-1
 90 45 l 1,0,-1
131 515 m 1,7,-1
 127 510 l 1,8,-1
 100 510 l 1,9,-1
 136 924 l 1,10,-1
 170 955 l 1,11,-1
 226 893 l 1,12,-1
 198 576 l 1,13,-1
 131 515 l 1,7,-1
185 969 m 1,14,-1
 219 1000 l 1,15,-1
 684 1000 l 1,16,-1
 713 969 l 1,17,-1
 645 907 l 1,18,-1
 242 907 l 1,19,-1
 185 969 l 1,14,-1
671 499 m 1,20,-1
 620 453 l 1,21,-1
 620 454 l 1,22,-1
 188 454 l 1,23,-1
 188 453 l 1,24,-1
 144 500 l 1,25,-1
 196 547 l 1,26,-1
 196 546 l 1,27,-1
 628 546 l 1,28,-1
 671 499 l 1,20,-1
EndSplineSet
Validated: 1
EndChar

StartChar: G
Encoding: 71 71 24
Width: 816
GlyphClass: 2
Flags: W
LayerCount: 2
Fore
SplineSet
90 45 m 1,0,-1
 62 76 l 1,1,-1
 98 490 l 1,2,-1
 125 490 l 1,3,-1
 129 485 l 1,4,-1
 185 424 l 1,5,-1
 157 107 l 1,6,-1
 90 45 l 1,0,-1
131 515 m 1,7,-1
 127 510 l 1,8,-1
 100 510 l 1,9,-1
 136 924 l 1,10,-1
 170 955 l 1,11,-1
 226 893 l 1,12,-1
 198 576 l 1,13,-1
 131 515 l 1,7,-1
185 969 m 1,14,-1
 219 1000 l 1,15,-1
 684 1000 l 1,16,-1
 713 969 l 1,17,-1
 645 907 l 1,18,-1
 242 907 l 1,19,-1
 185 969 l 1,14,-1
684 485 m 1,20,-1
 689 489 l 1,21,-1
 716 489 l 1,22,-1
 680 76 l 1,23,-1
 646 45 l 1,24,-1
 590 107 l 1,25,-1
 618 424 l 1,26,-1
 684 485 l 1,20,-1
631 31 m 1,27,-1
 597 0 l 1,28,-1
 132 0 l 1,29,-1
 103 31 l 1,30,-1
 171 93 l 1,31,-1
 574 93 l 1,32,-1
 631 31 l 1,27,-1
EndSplineSet
Validated: 1
EndChar

StartChar: H
Encoding: 72 72 25
Width: 816
GlyphClass: 2
Flags: W
LayerCount: 2
Fore
SplineSet
90 45 m 1,0,-1
 62 76 l 1,1,-1
 98 490 l 1,2,-1
 125 490 l 1,3,-1
 129 485 l 1,4,-1
 185 424 l 1,5,-1
 157 107 l 1,6,-1
 90 45 l 1,0,-1
131 515 m 1,7,-1
 127 510 l 1,8,-1
 100 510 l 1,9,-1
 136 924 l 1,10,-1
 170 955 l 1,11,-1
 226 893 l 1,12,-1
 198 576 l 1,13,-1
 131 515 l 1,7,-1
671 499 m 1,14,-1
 620 453 l 1,15,-1
 620 454 l 1,16,-1
 188 454 l 1,17,-1
 188 453 l 1,18,-1
 144 500 l 1,19,-1
 196 547 l 1,20,-1
 196 546 l 1,21,-1
 628 546 l 1,22,-1
 671 499 l 1,14,-1
684 485 m 1,23,-1
 689 489 l 1,24,-1
 716 489 l 1,25,-1
 680 76 l 1,26,-1
 646 45 l 1,27,-1
 590 107 l 1,28,-1
 618 424 l 1,29,-1
 684 485 l 1,23,-1
726 955 m 1,30,-1
 754 924 l 1,31,-1
 718 510 l 1,32,-1
 691 510 l 1,33,-1
 687 514 l 1,34,-1
 631 575 l 1,35,-1
 659 893 l 1,36,-1
 726 955 l 1,30,-1
EndSplineSet
Validated: 1
EndChar

StartChar: I
Encoding: 73 73 26
Width: 816
GlyphClass: 2
Flags: W
LayerCount: 2
Fore
SplineSet
684 485 m 5,0,-1
 689 489 l 5,1,-1
 716 489 l 5,2,-1
 680 76 l 5,3,-1
 646 45 l 5,4,-1
 590 107 l 5,5,-1
 618 424 l 5,6,-1
 684 485 l 5,0,-1
726 955 m 5,7,-1
 754 924 l 5,8,-1
 718 510 l 5,9,-1
 691 510 l 5,10,-1
 687 514 l 5,11,-1
 631 575 l 5,12,-1
 659 893 l 5,13,-1
 726 955 l 5,7,-1
EndSplineSet
Validated: 1
EndChar

StartChar: J
Encoding: 74 74 27
Width: 816
GlyphClass: 2
Flags: W
LayerCount: 2
Fore
SplineSet
90 45 m 1,0,-1
 62 76 l 1,1,-1
 98 490 l 1,2,-1
 125 490 l 1,3,-1
 129 485 l 1,4,-1
 185 424 l 1,5,-1
 157 107 l 1,6,-1
 90 45 l 1,0,-1
684 485 m 1,7,-1
 689 489 l 1,8,-1
 716 489 l 1,9,-1
 680 76 l 1,10,-1
 646 45 l 1,11,-1
 590 107 l 1,12,-1
 618 424 l 1,13,-1
 684 485 l 1,7,-1
726 955 m 1,14,-1
 754 924 l 1,15,-1
 718 510 l 1,16,-1
 691 510 l 1,17,-1
 687 514 l 1,18,-1
 631 575 l 1,19,-1
 659 893 l 1,20,-1
 726 955 l 1,14,-1
631 31 m 1,21,-1
 597 0 l 1,22,-1
 132 0 l 1,23,-1
 103 31 l 1,24,-1
 171 93 l 1,25,-1
 574 93 l 1,26,-1
 631 31 l 1,21,-1
EndSplineSet
Validated: 1
EndChar

StartChar: K
Encoding: 75 75 28
Width: 816
GlyphClass: 2
Flags: W
LayerCount: 2
Fore
SplineSet
90 45 m 1,0,-1
 62 76 l 1,1,-1
 98 490 l 1,2,-1
 125 490 l 1,3,-1
 129 485 l 1,4,-1
 185 424 l 1,5,-1
 157 107 l 1,6,-1
 90 45 l 1,0,-1
131 515 m 1,7,-1
 127 510 l 1,8,-1
 100 510 l 1,9,-1
 136 924 l 1,10,-1
 170 955 l 1,11,-1
 226 893 l 1,12,-1
 198 576 l 1,13,-1
 131 515 l 1,7,-1
185 969 m 1,14,-1
 219 1000 l 1,15,-1
 684 1000 l 1,16,-1
 713 969 l 1,17,-1
 645 907 l 1,18,-1
 242 907 l 1,19,-1
 185 969 l 1,14,-1
671 499 m 1,20,-1
 620 453 l 1,21,-1
 620 454 l 1,22,-1
 188 454 l 1,23,-1
 188 453 l 1,24,-1
 144 500 l 1,25,-1
 196 547 l 1,26,-1
 196 546 l 1,27,-1
 628 546 l 1,28,-1
 671 499 l 1,20,-1
684 485 m 1,29,-1
 689 489 l 1,30,-1
 716 489 l 1,31,-1
 680 76 l 1,32,-1
 646 45 l 1,33,-1
 590 107 l 1,34,-1
 618 424 l 1,35,-1
 684 485 l 1,29,-1
EndSplineSet
Validated: 1
EndChar

StartChar: L
Encoding: 76 76 29
Width: 816
GlyphClass: 2
Flags: W
LayerCount: 2
Fore
SplineSet
90 45 m 1,0,-1
 62 76 l 1,1,-1
 98 490 l 1,2,-1
 125 490 l 1,3,-1
 129 485 l 1,4,-1
 185 424 l 1,5,-1
 157 107 l 1,6,-1
 90 45 l 1,0,-1
131 515 m 1,7,-1
 127 510 l 1,8,-1
 100 510 l 1,9,-1
 136 924 l 1,10,-1
 170 955 l 1,11,-1
 226 893 l 1,12,-1
 198 576 l 1,13,-1
 131 515 l 1,7,-1
631 31 m 1,14,-1
 597 0 l 1,15,-1
 132 0 l 1,16,-1
 103 31 l 1,17,-1
 171 93 l 1,18,-1
 574 93 l 1,19,-1
 631 31 l 1,14,-1
EndSplineSet
Validated: 1
EndChar

StartChar: M
Encoding: 77 77 30
Width: 816
GlyphClass: 2
Flags: W
LayerCount: 2
Fore
SplineSet
90 45 m 1,0,-1
 62 76 l 1,1,-1
 98 490 l 1,2,-1
 125 490 l 1,3,-1
 129 485 l 1,4,-1
 185 424 l 1,5,-1
 157 107 l 1,6,-1
 90 45 l 1,0,-1
131 515 m 1,7,-1
 127 510 l 1,8,-1
 100 510 l 1,9,-1
 136 924 l 1,10,-1
 170 955 l 1,11,-1
 226 893 l 1,12,-1
 198 576 l 1,13,-1
 131 515 l 1,7,-1
185 969 m 1,14,-1
 219 1000 l 1,15,-1
 684 1000 l 1,16,-1
 713 969 l 1,17,-1
 645 907 l 1,18,-1
 242 907 l 1,19,-1
 185 969 l 1,14,-1
684 485 m 1,20,-1
 689 489 l 1,21,-1
 716 489 l 1,22,-1
 680 76 l 1,23,-1
 646 45 l 1,24,-1
 590 107 l 1,25,-1
 618 424 l 1,26,-1
 684 485 l 1,20,-1
726 955 m 1,27,-1
 754 924 l 1,28,-1
 718 510 l 1,29,-1
 691 510 l 1,30,-1
 687 514 l 1,31,-1
 631 575 l 1,32,-1
 659 893 l 1,33,-1
 726 955 l 1,27,-1
EndSplineSet
Validated: 1
EndChar

StartChar: N
Encoding: 78 78 31
Width: 816
GlyphClass: 2
Flags: W
LayerCount: 2
Fore
SplineSet
90 45 m 1,0,-1
 62 76 l 1,1,-1
 98 490 l 1,2,-1
 125 490 l 1,3,-1
 129 485 l 1,4,-1
 185 424 l 1,5,-1
 157 107 l 1,6,-1
 90 45 l 1,0,-1
671 499 m 1,7,-1
 620 453 l 1,8,-1
 620 454 l 1,9,-1
 188 454 l 1,10,-1
 188 453 l 1,11,-1
 144 500 l 1,12,-1
 196 547 l 1,13,-1
 196 546 l 1,14,-1
 628 546 l 1,15,-1
 671 499 l 1,7,-1
684 485 m 1,16,-1
 689 489 l 1,17,-1
 716 489 l 1,18,-1
 680 76 l 1,19,-1
 646 45 l 1,20,-1
 590 107 l 1,21,-1
 618 424 l 1,22,-1
 684 485 l 1,16,-1
EndSplineSet
Validated: 1
EndChar

StartChar: O
Encoding: 79 79 32
Width: 816
GlyphClass: 2
Flags: W
LayerCount: 2
Fore
SplineSet
90 45 m 5,0,-1
 62 76 l 5,1,-1
 98 490 l 5,2,-1
 125 490 l 5,3,-1
 129 485 l 5,4,-1
 185 424 l 5,5,-1
 157 107 l 5,6,-1
 90 45 l 5,0,-1
131 515 m 5,7,-1
 127 510 l 5,8,-1
 100 510 l 5,9,-1
 136 924 l 5,10,-1
 170 955 l 5,11,-1
 226 893 l 5,12,-1
 198 576 l 5,13,-1
 131 515 l 5,7,-1
185 969 m 5,14,-1
 219 1000 l 5,15,-1
 684 1000 l 5,16,-1
 713 969 l 5,17,-1
 645 907 l 5,18,-1
 242 907 l 5,19,-1
 185 969 l 5,14,-1
684 485 m 5,20,-1
 689 489 l 5,21,-1
 716 489 l 5,22,-1
 680 76 l 5,23,-1
 646 45 l 5,24,-1
 590 107 l 5,25,-1
 618 424 l 5,26,-1
 684 485 l 5,20,-1
726 955 m 5,27,-1
 754 924 l 5,28,-1
 718 510 l 5,29,-1
 691 510 l 5,30,-1
 687 514 l 5,31,-1
 631 575 l 5,32,-1
 659 893 l 5,33,-1
 726 955 l 5,27,-1
631 31 m 5,34,-1
 597 0 l 5,35,-1
 132 0 l 5,36,-1
 103 31 l 5,37,-1
 171 93 l 5,38,-1
 574 93 l 5,39,-1
 631 31 l 5,34,-1
EndSplineSet
Validated: 1
EndChar

StartChar: P
Encoding: 80 80 33
Width: 816
GlyphClass: 2
Flags: W
LayerCount: 2
Fore
SplineSet
90 45 m 1,0,-1
 62 76 l 1,1,-1
 98 490 l 1,2,-1
 125 490 l 1,3,-1
 129 485 l 1,4,-1
 185 424 l 1,5,-1
 157 107 l 1,6,-1
 90 45 l 1,0,-1
131 515 m 1,7,-1
 127 510 l 1,8,-1
 100 510 l 1,9,-1
 136 924 l 1,10,-1
 170 955 l 1,11,-1
 226 893 l 1,12,-1
 198 576 l 1,13,-1
 131 515 l 1,7,-1
185 969 m 1,14,-1
 219 1000 l 1,15,-1
 684 1000 l 1,16,-1
 713 969 l 1,17,-1
 645 907 l 1,18,-1
 242 907 l 1,19,-1
 185 969 l 1,14,-1
671 499 m 1,20,-1
 620 453 l 1,21,-1
 620 454 l 1,22,-1
 188 454 l 1,23,-1
 188 453 l 1,24,-1
 144 500 l 1,25,-1
 196 547 l 1,26,-1
 196 546 l 1,27,-1
 628 546 l 1,28,-1
 671 499 l 1,20,-1
726 955 m 1,29,-1
 754 924 l 1,30,-1
 718 510 l 1,31,-1
 691 510 l 1,32,-1
 687 514 l 1,33,-1
 631 575 l 1,34,-1
 659 893 l 1,35,-1
 726 955 l 1,29,-1
EndSplineSet
Validated: 1
EndChar

StartChar: Q
Encoding: 81 81 34
Width: 816
GlyphClass: 2
Flags: W
LayerCount: 2
Fore
SplineSet
131 515 m 1,0,-1
 127 510 l 1,1,-1
 100 510 l 1,2,-1
 136 924 l 1,3,-1
 170 955 l 1,4,-1
 226 893 l 1,5,-1
 198 576 l 1,6,-1
 131 515 l 1,0,-1
185 969 m 1,7,-1
 219 1000 l 1,8,-1
 684 1000 l 1,9,-1
 713 969 l 1,10,-1
 645 907 l 1,11,-1
 242 907 l 1,12,-1
 185 969 l 1,7,-1
671 499 m 1,13,-1
 620 453 l 1,14,-1
 620 454 l 1,15,-1
 188 454 l 1,16,-1
 188 453 l 1,17,-1
 144 500 l 1,18,-1
 196 547 l 1,19,-1
 196 546 l 1,20,-1
 628 546 l 1,21,-1
 671 499 l 1,13,-1
684 485 m 1,22,-1
 689 489 l 1,23,-1
 716 489 l 1,24,-1
 680 76 l 1,25,-1
 646 45 l 1,26,-1
 590 107 l 1,27,-1
 618 424 l 1,28,-1
 684 485 l 1,22,-1
726 955 m 1,29,-1
 754 924 l 1,30,-1
 718 510 l 1,31,-1
 691 510 l 1,32,-1
 687 514 l 1,33,-1
 631 575 l 1,34,-1
 659 893 l 1,35,-1
 726 955 l 1,29,-1
EndSplineSet
Validated: 1
EndChar

StartChar: R
Encoding: 82 82 35
Width: 816
GlyphClass: 2
Flags: W
LayerCount: 2
Fore
SplineSet
90 45 m 1,0,-1
 62 76 l 1,1,-1
 98 490 l 1,2,-1
 125 490 l 1,3,-1
 129 485 l 1,4,-1
 185 424 l 1,5,-1
 157 107 l 1,6,-1
 90 45 l 1,0,-1
671 499 m 1,7,-1
 620 453 l 1,8,-1
 620 454 l 1,9,-1
 188 454 l 1,10,-1
 188 453 l 1,11,-1
 144 500 l 1,12,-1
 196 547 l 1,13,-1
 196 546 l 1,14,-1
 628 546 l 1,15,-1
 671 499 l 1,7,-1
EndSplineSet
Validated: 1
EndChar

StartChar: S
Encoding: 83 83 36
Width: 816
GlyphClass: 2
Flags: W
LayerCount: 2
Fore
SplineSet
131 515 m 5,0,-1
 127 510 l 5,1,-1
 100 510 l 5,2,-1
 136 924 l 5,3,-1
 170 955 l 5,4,-1
 226 893 l 5,5,-1
 198 576 l 5,6,-1
 131 515 l 5,0,-1
185 969 m 5,7,-1
 219 1000 l 5,8,-1
 684 1000 l 5,9,-1
 713 969 l 5,10,-1
 645 907 l 5,11,-1
 242 907 l 5,12,-1
 185 969 l 5,7,-1
671 499 m 5,13,-1
 620 453 l 5,14,-1
 620 454 l 5,15,-1
 188 454 l 5,16,-1
 188 453 l 5,17,-1
 144 500 l 5,18,-1
 196 547 l 5,19,-1
 196 546 l 5,20,-1
 628 546 l 5,21,-1
 671 499 l 5,13,-1
684 485 m 5,22,-1
 689 489 l 5,23,-1
 716 489 l 5,24,-1
 680 76 l 5,25,-1
 646 45 l 5,26,-1
 590 107 l 5,27,-1
 618 424 l 5,28,-1
 684 485 l 5,22,-1
631 31 m 5,29,-1
 597 0 l 5,30,-1
 132 0 l 5,31,-1
 103 31 l 5,32,-1
 171 93 l 5,33,-1
 574 93 l 5,34,-1
 631 31 l 5,29,-1
EndSplineSet
Validated: 1
EndChar

StartChar: T
Encoding: 84 84 37
Width: 816
GlyphClass: 2
Flags: W
LayerCount: 2
Fore
SplineSet
90 45 m 1,0,-1
 62 76 l 1,1,-1
 98 490 l 1,2,-1
 125 490 l 1,3,-1
 129 485 l 1,4,-1
 185 424 l 1,5,-1
 157 107 l 1,6,-1
 90 45 l 1,0,-1
131 515 m 1,7,-1
 127 510 l 1,8,-1
 100 510 l 1,9,-1
 136 924 l 1,10,-1
 170 955 l 1,11,-1
 226 893 l 1,12,-1
 198 576 l 1,13,-1
 131 515 l 1,7,-1
671 499 m 1,14,-1
 620 453 l 1,15,-1
 620 454 l 1,16,-1
 188 454 l 1,17,-1
 188 453 l 1,18,-1
 144 500 l 1,19,-1
 196 547 l 1,20,-1
 196 546 l 1,21,-1
 628 546 l 1,22,-1
 671 499 l 1,14,-1
631 31 m 1,23,-1
 597 0 l 1,24,-1
 132 0 l 1,25,-1
 103 31 l 1,26,-1
 171 93 l 1,27,-1
 574 93 l 1,28,-1
 631 31 l 1,23,-1
EndSplineSet
Validated: 1
EndChar

StartChar: U
Encoding: 85 85 38
Width: 816
GlyphClass: 2
Flags: W
LayerCount: 2
Fore
SplineSet
90 45 m 5,0,-1
 62 76 l 5,1,-1
 98 490 l 5,2,-1
 125 490 l 5,3,-1
 129 485 l 5,4,-1
 185 424 l 5,5,-1
 157 107 l 5,6,-1
 90 45 l 5,0,-1
131 515 m 5,7,-1
 127 510 l 5,8,-1
 100 510 l 5,9,-1
 136 924 l 5,10,-1
 170 955 l 5,11,-1
 226 893 l 5,12,-1
 198 576 l 5,13,-1
 131 515 l 5,7,-1
684 485 m 5,14,-1
 689 489 l 5,15,-1
 716 489 l 5,16,-1
 680 76 l 5,17,-1
 646 45 l 5,18,-1
 590 107 l 5,19,-1
 618 424 l 5,20,-1
 684 485 l 5,14,-1
726 955 m 5,21,-1
 754 924 l 5,22,-1
 718 510 l 5,23,-1
 691 510 l 5,24,-1
 687 514 l 5,25,-1
 631 575 l 5,26,-1
 659 893 l 5,27,-1
 726 955 l 5,21,-1
631 31 m 5,28,-1
 597 0 l 5,29,-1
 132 0 l 5,30,-1
 103 31 l 5,31,-1
 171 93 l 5,32,-1
 574 93 l 5,33,-1
 631 31 l 5,28,-1
EndSplineSet
Validated: 1
EndChar

StartChar: V
Encoding: 86 86 39
Width: 816
GlyphClass: 2
Flags: W
LayerCount: 2
Fore
SplineSet
90 45 m 1,0,-1
 62 76 l 1,1,-1
 98 490 l 1,2,-1
 125 490 l 1,3,-1
 129 485 l 1,4,-1
 185 424 l 1,5,-1
 157 107 l 1,6,-1
 90 45 l 1,0,-1
131 515 m 1,7,-1
 127 510 l 1,8,-1
 100 510 l 1,9,-1
 136 924 l 1,10,-1
 170 955 l 1,11,-1
 226 893 l 1,12,-1
 198 576 l 1,13,-1
 131 515 l 1,7,-1
684 485 m 1,14,-1
 689 489 l 1,15,-1
 716 489 l 1,16,-1
 680 76 l 1,17,-1
 646 45 l 1,18,-1
 590 107 l 1,19,-1
 618 424 l 1,20,-1
 684 485 l 1,14,-1
726 955 m 1,21,-1
 754 924 l 1,22,-1
 718 510 l 1,23,-1
 691 510 l 1,24,-1
 687 514 l 1,25,-1
 631 575 l 1,26,-1
 659 893 l 1,27,-1
 726 955 l 1,21,-1
631 31 m 1,28,-1
 597 0 l 1,29,-1
 132 0 l 1,30,-1
 103 31 l 1,31,-1
 171 93 l 1,32,-1
 574 93 l 1,33,-1
 631 31 l 1,28,-1
EndSplineSet
Validated: 1
EndChar

StartChar: W
Encoding: 87 87 40
Width: 816
GlyphClass: 2
Flags: W
LayerCount: 2
Fore
SplineSet
90 45 m 1,0,-1
 62 76 l 1,1,-1
 98 490 l 1,2,-1
 125 490 l 1,3,-1
 129 485 l 1,4,-1
 185 424 l 1,5,-1
 157 107 l 1,6,-1
 90 45 l 1,0,-1
131 515 m 1,7,-1
 127 510 l 1,8,-1
 100 510 l 1,9,-1
 136 924 l 1,10,-1
 170 955 l 1,11,-1
 226 893 l 1,12,-1
 198 576 l 1,13,-1
 131 515 l 1,7,-1
671 499 m 1,14,-1
 620 453 l 1,15,-1
 620 454 l 1,16,-1
 188 454 l 1,17,-1
 188 453 l 1,18,-1
 144 500 l 1,19,-1
 196 547 l 1,20,-1
 196 546 l 1,21,-1
 628 546 l 1,22,-1
 671 499 l 1,14,-1
684 485 m 1,23,-1
 689 489 l 1,24,-1
 716 489 l 1,25,-1
 680 76 l 1,26,-1
 646 45 l 1,27,-1
 590 107 l 1,28,-1
 618 424 l 1,29,-1
 684 485 l 1,23,-1
726 955 m 1,30,-1
 754 924 l 1,31,-1
 718 510 l 1,32,-1
 691 510 l 1,33,-1
 687 514 l 1,34,-1
 631 575 l 1,35,-1
 659 893 l 1,36,-1
 726 955 l 1,30,-1
631 31 m 1,37,-1
 597 0 l 1,38,-1
 132 0 l 1,39,-1
 103 31 l 1,40,-1
 171 93 l 1,41,-1
 574 93 l 1,42,-1
 631 31 l 1,37,-1
EndSplineSet
Validated: 1
EndChar

StartChar: X
Encoding: 88 88 41
Width: 816
GlyphClass: 2
Flags: W
LayerCount: 2
Fore
SplineSet
90 45 m 1,0,-1
 62 76 l 1,1,-1
 98 490 l 1,2,-1
 125 490 l 1,3,-1
 129 485 l 1,4,-1
 185 424 l 1,5,-1
 157 107 l 1,6,-1
 90 45 l 1,0,-1
131 515 m 1,7,-1
 127 510 l 1,8,-1
 100 510 l 1,9,-1
 136 924 l 1,10,-1
 170 955 l 1,11,-1
 226 893 l 1,12,-1
 198 576 l 1,13,-1
 131 515 l 1,7,-1
671 499 m 1,14,-1
 620 453 l 1,15,-1
 620 454 l 1,16,-1
 188 454 l 1,17,-1
 188 453 l 1,18,-1
 144 500 l 1,19,-1
 196 547 l 1,20,-1
 196 546 l 1,21,-1
 628 546 l 1,22,-1
 671 499 l 1,14,-1
684 485 m 1,23,-1
 689 489 l 1,24,-1
 716 489 l 1,25,-1
 680 76 l 1,26,-1
 646 45 l 1,27,-1
 590 107 l 1,28,-1
 618 424 l 1,29,-1
 684 485 l 1,23,-1
726 955 m 1,30,-1
 754 924 l 1,31,-1
 718 510 l 1,32,-1
 691 510 l 1,33,-1
 687 514 l 1,34,-1
 631 575 l 1,35,-1
 659 893 l 1,36,-1
 726 955 l 1,30,-1
EndSplineSet
Validated: 1
EndChar

StartChar: Y
Encoding: 89 89 42
Width: 816
GlyphClass: 2
Flags: W
LayerCount: 2
Fore
SplineSet
131 515 m 1,0,-1
 127 510 l 1,1,-1
 100 510 l 1,2,-1
 136 924 l 1,3,-1
 170 955 l 1,4,-1
 226 893 l 1,5,-1
 198 576 l 1,6,-1
 131 515 l 1,0,-1
671 499 m 1,7,-1
 620 453 l 1,8,-1
 620 454 l 1,9,-1
 188 454 l 1,10,-1
 188 453 l 1,11,-1
 144 500 l 1,12,-1
 196 547 l 1,13,-1
 196 546 l 1,14,-1
 628 546 l 1,15,-1
 671 499 l 1,7,-1
684 485 m 1,16,-1
 689 489 l 1,17,-1
 716 489 l 1,18,-1
 680 76 l 1,19,-1
 646 45 l 1,20,-1
 590 107 l 1,21,-1
 618 424 l 1,22,-1
 684 485 l 1,16,-1
726 955 m 1,23,-1
 754 924 l 1,24,-1
 718 510 l 1,25,-1
 691 510 l 1,26,-1
 687 514 l 1,27,-1
 631 575 l 1,28,-1
 659 893 l 1,29,-1
 726 955 l 1,23,-1
631 31 m 1,30,-1
 597 0 l 1,31,-1
 132 0 l 1,32,-1
 103 31 l 1,33,-1
 171 93 l 1,34,-1
 574 93 l 1,35,-1
 631 31 l 1,30,-1
EndSplineSet
Validated: 1
EndChar

StartChar: Z
Encoding: 90 90 43
Width: 816
GlyphClass: 2
Flags: W
LayerCount: 2
Fore
SplineSet
90 45 m 1,0,-1
 62 76 l 1,1,-1
 98 490 l 1,2,-1
 125 490 l 1,3,-1
 129 485 l 1,4,-1
 185 424 l 1,5,-1
 157 107 l 1,6,-1
 90 45 l 1,0,-1
185 969 m 1,7,-1
 219 1000 l 1,8,-1
 684 1000 l 1,9,-1
 713 969 l 1,10,-1
 645 907 l 1,11,-1
 242 907 l 1,12,-1
 185 969 l 1,7,-1
726 955 m 1,13,-1
 754 924 l 1,14,-1
 718 510 l 1,15,-1
 691 510 l 1,16,-1
 687 514 l 1,17,-1
 631 575 l 1,18,-1
 659 893 l 1,19,-1
 726 955 l 1,13,-1
631 31 m 1,20,-1
 597 0 l 1,21,-1
 132 0 l 1,22,-1
 103 31 l 1,23,-1
 171 93 l 1,24,-1
 574 93 l 1,25,-1
 631 31 l 1,20,-1
EndSplineSet
Validated: 1
EndChar

StartChar: a
Encoding: 97 97 44
Width: 816
GlyphClass: 2
Flags: W
LayerCount: 2
Fore
SplineSet
90 45 m 1,0,-1
 62 76 l 1,1,-1
 98 490 l 1,2,-1
 125 490 l 1,3,-1
 129 485 l 1,4,-1
 185 424 l 1,5,-1
 157 107 l 1,6,-1
 90 45 l 1,0,-1
131 515 m 1,7,-1
 127 510 l 1,8,-1
 100 510 l 1,9,-1
 136 924 l 1,10,-1
 170 955 l 1,11,-1
 226 893 l 1,12,-1
 198 576 l 1,13,-1
 131 515 l 1,7,-1
185 969 m 1,14,-1
 219 1000 l 1,15,-1
 684 1000 l 1,16,-1
 713 969 l 1,17,-1
 645 907 l 1,18,-1
 242 907 l 1,19,-1
 185 969 l 1,14,-1
671 499 m 1,20,-1
 620 453 l 1,21,-1
 620 454 l 1,22,-1
 188 454 l 1,23,-1
 188 453 l 1,24,-1
 144 500 l 1,25,-1
 196 547 l 1,26,-1
 196 546 l 1,27,-1
 628 546 l 1,28,-1
 671 499 l 1,20,-1
684 485 m 1,29,-1
 689 489 l 1,30,-1
 716 489 l 1,31,-1
 680 76 l 1,32,-1
 646 45 l 1,33,-1
 590 107 l 1,34,-1
 618 424 l 1,35,-1
 684 485 l 1,29,-1
726 955 m 1,36,-1
 754 924 l 1,37,-1
 718 510 l 1,38,-1
 691 510 l 1,39,-1
 687 514 l 1,40,-1
 631 575 l 1,41,-1
 659 893 l 1,42,-1
 726 955 l 1,36,-1
EndSplineSet
Validated: 1
EndChar

StartChar: b
Encoding: 98 98 45
Width: 816
GlyphClass: 2
Flags: W
LayerCount: 2
Fore
SplineSet
90 45 m 1,0,-1
 62 76 l 1,1,-1
 98 490 l 1,2,-1
 125 490 l 1,3,-1
 129 485 l 1,4,-1
 185 424 l 1,5,-1
 157 107 l 1,6,-1
 90 45 l 1,0,-1
131 515 m 1,7,-1
 127 510 l 1,8,-1
 100 510 l 1,9,-1
 136 924 l 1,10,-1
 170 955 l 1,11,-1
 226 893 l 1,12,-1
 198 576 l 1,13,-1
 131 515 l 1,7,-1
671 499 m 1,14,-1
 620 453 l 1,15,-1
 620 454 l 1,16,-1
 188 454 l 1,17,-1
 188 453 l 1,18,-1
 144 500 l 1,19,-1
 196 547 l 1,20,-1
 196 546 l 1,21,-1
 628 546 l 1,22,-1
 671 499 l 1,14,-1
684 485 m 1,23,-1
 689 489 l 1,24,-1
 716 489 l 1,25,-1
 680 76 l 1,26,-1
 646 45 l 1,27,-1
 590 107 l 1,28,-1
 618 424 l 1,29,-1
 684 485 l 1,23,-1
631 31 m 1,30,-1
 597 0 l 1,31,-1
 132 0 l 1,32,-1
 103 31 l 1,33,-1
 171 93 l 1,34,-1
 574 93 l 1,35,-1
 631 31 l 1,30,-1
EndSplineSet
Validated: 1
EndChar

StartChar: c
Encoding: 99 99 46
Width: 816
GlyphClass: 2
Flags: W
LayerCount: 2
Fore
SplineSet
90 45 m 1,0,-1
 62 76 l 1,1,-1
 98 490 l 1,2,-1
 125 490 l 1,3,-1
 129 485 l 1,4,-1
 185 424 l 1,5,-1
 157 107 l 1,6,-1
 90 45 l 1,0,-1
671 499 m 1,7,-1
 620 453 l 1,8,-1
 620 454 l 1,9,-1
 188 454 l 1,10,-1
 188 453 l 1,11,-1
 144 500 l 1,12,-1
 196 547 l 1,13,-1
 196 546 l 1,14,-1
 628 546 l 1,15,-1
 671 499 l 1,7,-1
631 31 m 1,16,-1
 597 0 l 1,17,-1
 132 0 l 1,18,-1
 103 31 l 1,19,-1
 171 93 l 1,20,-1
 574 93 l 1,21,-1
 631 31 l 1,16,-1
EndSplineSet
Validated: 1
EndChar

StartChar: d
Encoding: 100 100 47
Width: 816
GlyphClass: 2
Flags: W
LayerCount: 2
Fore
SplineSet
90 45 m 1,0,-1
 62 76 l 1,1,-1
 98 490 l 1,2,-1
 125 490 l 1,3,-1
 129 485 l 1,4,-1
 185 424 l 1,5,-1
 157 107 l 1,6,-1
 90 45 l 1,0,-1
671 499 m 1,7,-1
 620 453 l 1,8,-1
 620 454 l 1,9,-1
 188 454 l 1,10,-1
 188 453 l 1,11,-1
 144 500 l 1,12,-1
 196 547 l 1,13,-1
 196 546 l 1,14,-1
 628 546 l 1,15,-1
 671 499 l 1,7,-1
684 485 m 1,16,-1
 689 489 l 1,17,-1
 716 489 l 1,18,-1
 680 76 l 1,19,-1
 646 45 l 1,20,-1
 590 107 l 1,21,-1
 618 424 l 1,22,-1
 684 485 l 1,16,-1
726 955 m 1,23,-1
 754 924 l 1,24,-1
 718 510 l 1,25,-1
 691 510 l 1,26,-1
 687 514 l 1,27,-1
 631 575 l 1,28,-1
 659 893 l 1,29,-1
 726 955 l 1,23,-1
631 31 m 1,30,-1
 597 0 l 1,31,-1
 132 0 l 1,32,-1
 103 31 l 1,33,-1
 171 93 l 1,34,-1
 574 93 l 1,35,-1
 631 31 l 1,30,-1
EndSplineSet
Validated: 1
EndChar

StartChar: e
Encoding: 101 101 48
Width: 816
GlyphClass: 2
Flags: W
LayerCount: 2
Fore
SplineSet
90 45 m 1,0,-1
 62 76 l 1,1,-1
 98 490 l 1,2,-1
 125 490 l 1,3,-1
 129 485 l 1,4,-1
 185 424 l 1,5,-1
 157 107 l 1,6,-1
 90 45 l 1,0,-1
131 515 m 1,7,-1
 127 510 l 1,8,-1
 100 510 l 1,9,-1
 136 924 l 1,10,-1
 170 955 l 1,11,-1
 226 893 l 1,12,-1
 198 576 l 1,13,-1
 131 515 l 1,7,-1
185 969 m 1,14,-1
 219 1000 l 1,15,-1
 684 1000 l 1,16,-1
 713 969 l 1,17,-1
 645 907 l 1,18,-1
 242 907 l 1,19,-1
 185 969 l 1,14,-1
671 499 m 1,20,-1
 620 453 l 1,21,-1
 620 454 l 1,22,-1
 188 454 l 1,23,-1
 188 453 l 1,24,-1
 144 500 l 1,25,-1
 196 547 l 1,26,-1
 196 546 l 1,27,-1
 628 546 l 1,28,-1
 671 499 l 1,20,-1
631 31 m 1,29,-1
 597 0 l 1,30,-1
 132 0 l 1,31,-1
 103 31 l 1,32,-1
 171 93 l 1,33,-1
 574 93 l 1,34,-1
 631 31 l 1,29,-1
EndSplineSet
Validated: 1
EndChar

StartChar: f
Encoding: 102 102 49
Width: 816
GlyphClass: 2
Flags: W
LayerCount: 2
Fore
SplineSet
90 45 m 1,0,-1
 62 76 l 1,1,-1
 98 490 l 1,2,-1
 125 490 l 1,3,-1
 129 485 l 1,4,-1
 185 424 l 1,5,-1
 157 107 l 1,6,-1
 90 45 l 1,0,-1
131 515 m 1,7,-1
 127 510 l 1,8,-1
 100 510 l 1,9,-1
 136 924 l 1,10,-1
 170 955 l 1,11,-1
 226 893 l 1,12,-1
 198 576 l 1,13,-1
 131 515 l 1,7,-1
185 969 m 1,14,-1
 219 1000 l 1,15,-1
 684 1000 l 1,16,-1
 713 969 l 1,17,-1
 645 907 l 1,18,-1
 242 907 l 1,19,-1
 185 969 l 1,14,-1
671 499 m 1,20,-1
 620 453 l 1,21,-1
 620 454 l 1,22,-1
 188 454 l 1,23,-1
 188 453 l 1,24,-1
 144 500 l 1,25,-1
 196 547 l 1,26,-1
 196 546 l 1,27,-1
 628 546 l 1,28,-1
 671 499 l 1,20,-1
EndSplineSet
Validated: 1
EndChar

StartChar: g
Encoding: 103 103 50
Width: 816
GlyphClass: 2
Flags: W
LayerCount: 2
Fore
SplineSet
131 515 m 5,0,-1
 127 510 l 5,1,-1
 100 510 l 5,2,-1
 136 924 l 5,3,-1
 170 955 l 5,4,-1
 226 893 l 5,5,-1
 198 576 l 5,6,-1
 131 515 l 5,0,-1
185 969 m 5,7,-1
 219 1000 l 5,8,-1
 684 1000 l 5,9,-1
 713 969 l 5,10,-1
 645 907 l 5,11,-1
 242 907 l 5,12,-1
 185 969 l 5,7,-1
671 499 m 5,13,-1
 620 453 l 5,14,-1
 620 454 l 5,15,-1
 188 454 l 5,16,-1
 188 453 l 5,17,-1
 144 500 l 5,18,-1
 196 547 l 5,19,-1
 196 546 l 5,20,-1
 628 546 l 5,21,-1
 671 499 l 5,13,-1
684 485 m 5,22,-1
 689 489 l 5,23,-1
 716 489 l 5,24,-1
 680 76 l 5,25,-1
 646 45 l 5,26,-1
 590 107 l 5,27,-1
 618 424 l 5,28,-1
 684 485 l 5,22,-1
726 955 m 5,29,-1
 754 924 l 5,30,-1
 718 510 l 5,31,-1
 691 510 l 5,32,-1
 687 514 l 5,33,-1
 631 575 l 5,34,-1
 659 893 l 5,35,-1
 726 955 l 5,29,-1
631 31 m 5,36,-1
 597 0 l 5,37,-1
 132 0 l 5,38,-1
 103 31 l 5,39,-1
 171 93 l 5,40,-1
 574 93 l 5,41,-1
 631 31 l 5,36,-1
EndSplineSet
Validated: 1
EndChar

StartChar: h
Encoding: 104 104 51
Width: 816
GlyphClass: 2
Flags: W
LayerCount: 2
Fore
SplineSet
90 45 m 1,0,-1
 62 76 l 1,1,-1
 98 490 l 1,2,-1
 125 490 l 1,3,-1
 129 485 l 1,4,-1
 185 424 l 1,5,-1
 157 107 l 1,6,-1
 90 45 l 1,0,-1
131 515 m 1,7,-1
 127 510 l 1,8,-1
 100 510 l 1,9,-1
 136 924 l 1,10,-1
 170 955 l 1,11,-1
 226 893 l 1,12,-1
 198 576 l 1,13,-1
 131 515 l 1,7,-1
671 499 m 1,14,-1
 620 453 l 1,15,-1
 620 454 l 1,16,-1
 188 454 l 1,17,-1
 188 453 l 1,18,-1
 144 500 l 1,19,-1
 196 547 l 1,20,-1
 196 546 l 1,21,-1
 628 546 l 1,22,-1
 671 499 l 1,14,-1
684 485 m 1,23,-1
 689 489 l 1,24,-1
 716 489 l 1,25,-1
 680 76 l 1,26,-1
 646 45 l 1,27,-1
 590 107 l 1,28,-1
 618 424 l 1,29,-1
 684 485 l 1,23,-1
EndSplineSet
Validated: 1
EndChar

StartChar: i
Encoding: 105 105 52
Width: 816
GlyphClass: 2
Flags: W
LayerCount: 2
Fore
SplineSet
684 485 m 1,0,-1
 689 489 l 1,1,-1
 716 489 l 1,2,-1
 680 76 l 1,3,-1
 646 45 l 1,4,-1
 590 107 l 1,5,-1
 618 424 l 1,6,-1
 684 485 l 1,0,-1
EndSplineSet
Validated: 1
EndChar

StartChar: j
Encoding: 106 106 53
Width: 816
GlyphClass: 2
Flags: W
LayerCount: 2
Fore
SplineSet
90 45 m 1,0,-1
 62 76 l 1,1,-1
 98 490 l 1,2,-1
 125 490 l 1,3,-1
 129 485 l 1,4,-1
 185 424 l 1,5,-1
 157 107 l 1,6,-1
 90 45 l 1,0,-1
684 485 m 1,7,-1
 689 489 l 1,8,-1
 716 489 l 1,9,-1
 680 76 l 1,10,-1
 646 45 l 1,11,-1
 590 107 l 1,12,-1
 618 424 l 1,13,-1
 684 485 l 1,7,-1
726 955 m 1,14,-1
 754 924 l 1,15,-1
 718 510 l 1,16,-1
 691 510 l 1,17,-1
 687 514 l 1,18,-1
 631 575 l 1,19,-1
 659 893 l 1,20,-1
 726 955 l 1,14,-1
631 31 m 1,21,-1
 597 0 l 1,22,-1
 132 0 l 1,23,-1
 103 31 l 1,24,-1
 171 93 l 1,25,-1
 574 93 l 1,26,-1
 631 31 l 1,21,-1
EndSplineSet
Validated: 1
EndChar

StartChar: k
Encoding: 107 107 54
Width: 816
GlyphClass: 2
Flags: W
LayerCount: 2
Fore
SplineSet
90 45 m 1,0,-1
 62 76 l 1,1,-1
 98 490 l 1,2,-1
 125 490 l 1,3,-1
 129 485 l 1,4,-1
 185 424 l 1,5,-1
 157 107 l 1,6,-1
 90 45 l 1,0,-1
131 515 m 1,7,-1
 127 510 l 1,8,-1
 100 510 l 1,9,-1
 136 924 l 1,10,-1
 170 955 l 1,11,-1
 226 893 l 1,12,-1
 198 576 l 1,13,-1
 131 515 l 1,7,-1
185 969 m 1,14,-1
 219 1000 l 1,15,-1
 684 1000 l 1,16,-1
 713 969 l 1,17,-1
 645 907 l 1,18,-1
 242 907 l 1,19,-1
 185 969 l 1,14,-1
671 499 m 1,20,-1
 620 453 l 1,21,-1
 620 454 l 1,22,-1
 188 454 l 1,23,-1
 188 453 l 1,24,-1
 144 500 l 1,25,-1
 196 547 l 1,26,-1
 196 546 l 1,27,-1
 628 546 l 1,28,-1
 671 499 l 1,20,-1
684 485 m 1,29,-1
 689 489 l 1,30,-1
 716 489 l 1,31,-1
 680 76 l 1,32,-1
 646 45 l 1,33,-1
 590 107 l 1,34,-1
 618 424 l 1,35,-1
 684 485 l 1,29,-1
EndSplineSet
Validated: 1
EndChar

StartChar: l
Encoding: 108 108 55
Width: 816
GlyphClass: 2
Flags: W
LayerCount: 2
Fore
SplineSet
684 485 m 5,0,-1
 689 489 l 5,1,-1
 716 489 l 5,2,-1
 680 76 l 5,3,-1
 646 45 l 5,4,-1
 590 107 l 5,5,-1
 618 424 l 5,6,-1
 684 485 l 5,0,-1
726 955 m 5,7,-1
 754 924 l 5,8,-1
 718 510 l 5,9,-1
 691 510 l 5,10,-1
 687 514 l 5,11,-1
 631 575 l 5,12,-1
 659 893 l 5,13,-1
 726 955 l 5,7,-1
EndSplineSet
Validated: 1
EndChar

StartChar: m
Encoding: 109 109 56
Width: 816
GlyphClass: 2
Flags: W
LayerCount: 2
Fore
SplineSet
90 45 m 1,0,-1
 62 76 l 1,1,-1
 98 490 l 1,2,-1
 125 490 l 1,3,-1
 129 485 l 1,4,-1
 185 424 l 1,5,-1
 157 107 l 1,6,-1
 90 45 l 1,0,-1
131 515 m 1,7,-1
 127 510 l 1,8,-1
 100 510 l 1,9,-1
 136 924 l 1,10,-1
 170 955 l 1,11,-1
 226 893 l 1,12,-1
 198 576 l 1,13,-1
 131 515 l 1,7,-1
185 969 m 1,14,-1
 219 1000 l 1,15,-1
 684 1000 l 1,16,-1
 713 969 l 1,17,-1
 645 907 l 1,18,-1
 242 907 l 1,19,-1
 185 969 l 1,14,-1
684 485 m 1,20,-1
 689 489 l 1,21,-1
 716 489 l 1,22,-1
 680 76 l 1,23,-1
 646 45 l 1,24,-1
 590 107 l 1,25,-1
 618 424 l 1,26,-1
 684 485 l 1,20,-1
726 955 m 1,27,-1
 754 924 l 1,28,-1
 718 510 l 1,29,-1
 691 510 l 1,30,-1
 687 514 l 1,31,-1
 631 575 l 1,32,-1
 659 893 l 1,33,-1
 726 955 l 1,27,-1
EndSplineSet
Validated: 1
EndChar

StartChar: n
Encoding: 110 110 57
Width: 816
GlyphClass: 2
Flags: W
LayerCount: 2
Fore
SplineSet
90 45 m 1,0,-1
 62 76 l 1,1,-1
 98 490 l 1,2,-1
 125 490 l 1,3,-1
 129 485 l 1,4,-1
 185 424 l 1,5,-1
 157 107 l 1,6,-1
 90 45 l 1,0,-1
671 499 m 1,7,-1
 620 453 l 1,8,-1
 620 454 l 1,9,-1
 188 454 l 1,10,-1
 188 453 l 1,11,-1
 144 500 l 1,12,-1
 196 547 l 1,13,-1
 196 546 l 1,14,-1
 628 546 l 1,15,-1
 671 499 l 1,7,-1
684 485 m 1,16,-1
 689 489 l 1,17,-1
 716 489 l 1,18,-1
 680 76 l 1,19,-1
 646 45 l 1,20,-1
 590 107 l 1,21,-1
 618 424 l 1,22,-1
 684 485 l 1,16,-1
EndSplineSet
Validated: 1
EndChar

StartChar: o
Encoding: 111 111 58
Width: 816
GlyphClass: 2
Flags: W
LayerCount: 2
Fore
SplineSet
90 45 m 1,0,-1
 62 76 l 1,1,-1
 98 490 l 1,2,-1
 125 490 l 1,3,-1
 129 485 l 1,4,-1
 185 424 l 1,5,-1
 157 107 l 1,6,-1
 90 45 l 1,0,-1
671 499 m 1,7,-1
 620 453 l 1,8,-1
 620 454 l 1,9,-1
 188 454 l 1,10,-1
 188 453 l 1,11,-1
 144 500 l 1,12,-1
 196 547 l 1,13,-1
 196 546 l 1,14,-1
 628 546 l 1,15,-1
 671 499 l 1,7,-1
684 485 m 1,16,-1
 689 489 l 1,17,-1
 716 489 l 1,18,-1
 680 76 l 1,19,-1
 646 45 l 1,20,-1
 590 107 l 1,21,-1
 618 424 l 1,22,-1
 684 485 l 1,16,-1
631 31 m 1,23,-1
 597 0 l 1,24,-1
 132 0 l 1,25,-1
 103 31 l 1,26,-1
 171 93 l 1,27,-1
 574 93 l 1,28,-1
 631 31 l 1,23,-1
EndSplineSet
Validated: 1
EndChar

StartChar: p
Encoding: 112 112 59
Width: 816
GlyphClass: 2
Flags: W
LayerCount: 2
Fore
SplineSet
90 45 m 1,0,-1
 62 76 l 1,1,-1
 98 490 l 1,2,-1
 125 490 l 1,3,-1
 129 485 l 1,4,-1
 185 424 l 1,5,-1
 157 107 l 1,6,-1
 90 45 l 1,0,-1
131 515 m 1,7,-1
 127 510 l 1,8,-1
 100 510 l 1,9,-1
 136 924 l 1,10,-1
 170 955 l 1,11,-1
 226 893 l 1,12,-1
 198 576 l 1,13,-1
 131 515 l 1,7,-1
185 969 m 1,14,-1
 219 1000 l 1,15,-1
 684 1000 l 1,16,-1
 713 969 l 1,17,-1
 645 907 l 1,18,-1
 242 907 l 1,19,-1
 185 969 l 1,14,-1
671 499 m 1,20,-1
 620 453 l 1,21,-1
 620 454 l 1,22,-1
 188 454 l 1,23,-1
 188 453 l 1,24,-1
 144 500 l 1,25,-1
 196 547 l 1,26,-1
 196 546 l 1,27,-1
 628 546 l 1,28,-1
 671 499 l 1,20,-1
726 955 m 1,29,-1
 754 924 l 1,30,-1
 718 510 l 1,31,-1
 691 510 l 1,32,-1
 687 514 l 1,33,-1
 631 575 l 1,34,-1
 659 893 l 1,35,-1
 726 955 l 1,29,-1
EndSplineSet
Validated: 1
EndChar

StartChar: q
Encoding: 113 113 60
Width: 816
GlyphClass: 2
Flags: W
LayerCount: 2
Fore
SplineSet
131 515 m 1,0,-1
 127 510 l 1,1,-1
 100 510 l 1,2,-1
 136 924 l 1,3,-1
 170 955 l 1,4,-1
 226 893 l 1,5,-1
 198 576 l 1,6,-1
 131 515 l 1,0,-1
185 969 m 1,7,-1
 219 1000 l 1,8,-1
 684 1000 l 1,9,-1
 713 969 l 1,10,-1
 645 907 l 1,11,-1
 242 907 l 1,12,-1
 185 969 l 1,7,-1
671 499 m 1,13,-1
 620 453 l 1,14,-1
 620 454 l 1,15,-1
 188 454 l 1,16,-1
 188 453 l 1,17,-1
 144 500 l 1,18,-1
 196 547 l 1,19,-1
 196 546 l 1,20,-1
 628 546 l 1,21,-1
 671 499 l 1,13,-1
684 485 m 1,22,-1
 689 489 l 1,23,-1
 716 489 l 1,24,-1
 680 76 l 1,25,-1
 646 45 l 1,26,-1
 590 107 l 1,27,-1
 618 424 l 1,28,-1
 684 485 l 1,22,-1
726 955 m 1,29,-1
 754 924 l 1,30,-1
 718 510 l 1,31,-1
 691 510 l 1,32,-1
 687 514 l 1,33,-1
 631 575 l 1,34,-1
 659 893 l 1,35,-1
 726 955 l 1,29,-1
EndSplineSet
Validated: 1
EndChar

StartChar: r
Encoding: 114 114 61
Width: 816
GlyphClass: 2
Flags: W
LayerCount: 2
Fore
SplineSet
90 45 m 1,0,-1
 62 76 l 1,1,-1
 98 490 l 1,2,-1
 125 490 l 1,3,-1
 129 485 l 1,4,-1
 185 424 l 1,5,-1
 157 107 l 1,6,-1
 90 45 l 1,0,-1
671 499 m 1,7,-1
 620 453 l 1,8,-1
 620 454 l 1,9,-1
 188 454 l 1,10,-1
 188 453 l 1,11,-1
 144 500 l 1,12,-1
 196 547 l 1,13,-1
 196 546 l 1,14,-1
 628 546 l 1,15,-1
 671 499 l 1,7,-1
EndSplineSet
Validated: 1
EndChar

StartChar: s
Encoding: 115 115 62
Width: 816
GlyphClass: 2
Flags: W
LayerCount: 2
Fore
SplineSet
131 515 m 5,0,-1
 127 510 l 5,1,-1
 100 510 l 5,2,-1
 136 924 l 5,3,-1
 170 955 l 5,4,-1
 226 893 l 5,5,-1
 198 576 l 5,6,-1
 131 515 l 5,0,-1
185 969 m 5,7,-1
 219 1000 l 5,8,-1
 684 1000 l 5,9,-1
 713 969 l 5,10,-1
 645 907 l 5,11,-1
 242 907 l 5,12,-1
 185 969 l 5,7,-1
671 499 m 5,13,-1
 620 453 l 5,14,-1
 620 454 l 5,15,-1
 188 454 l 5,16,-1
 188 453 l 5,17,-1
 144 500 l 5,18,-1
 196 547 l 5,19,-1
 196 546 l 5,20,-1
 628 546 l 5,21,-1
 671 499 l 5,13,-1
684 485 m 5,22,-1
 689 489 l 5,23,-1
 716 489 l 5,24,-1
 680 76 l 5,25,-1
 646 45 l 5,26,-1
 590 107 l 5,27,-1
 618 424 l 5,28,-1
 684 485 l 5,22,-1
631 31 m 5,29,-1
 597 0 l 5,30,-1
 132 0 l 5,31,-1
 103 31 l 5,32,-1
 171 93 l 5,33,-1
 574 93 l 5,34,-1
 631 31 l 5,29,-1
EndSplineSet
Validated: 1
EndChar

StartChar: t
Encoding: 116 116 63
Width: 816
GlyphClass: 2
Flags: W
LayerCount: 2
Fore
SplineSet
90 45 m 1,0,-1
 62 76 l 1,1,-1
 98 490 l 1,2,-1
 125 490 l 1,3,-1
 129 485 l 1,4,-1
 185 424 l 1,5,-1
 157 107 l 1,6,-1
 90 45 l 1,0,-1
131 515 m 1,7,-1
 127 510 l 1,8,-1
 100 510 l 1,9,-1
 136 924 l 1,10,-1
 170 955 l 1,11,-1
 226 893 l 1,12,-1
 198 576 l 1,13,-1
 131 515 l 1,7,-1
671 499 m 1,14,-1
 620 453 l 1,15,-1
 620 454 l 1,16,-1
 188 454 l 1,17,-1
 188 453 l 1,18,-1
 144 500 l 1,19,-1
 196 547 l 1,20,-1
 196 546 l 1,21,-1
 628 546 l 1,22,-1
 671 499 l 1,14,-1
631 31 m 1,23,-1
 597 0 l 1,24,-1
 132 0 l 1,25,-1
 103 31 l 1,26,-1
 171 93 l 1,27,-1
 574 93 l 1,28,-1
 631 31 l 1,23,-1
EndSplineSet
Validated: 1
EndChar

StartChar: u
Encoding: 117 117 64
Width: 816
GlyphClass: 2
Flags: W
LayerCount: 2
Fore
SplineSet
90 45 m 1,0,-1
 62 76 l 1,1,-1
 98 490 l 1,2,-1
 125 490 l 1,3,-1
 129 485 l 1,4,-1
 185 424 l 1,5,-1
 157 107 l 1,6,-1
 90 45 l 1,0,-1
684 485 m 1,7,-1
 689 489 l 1,8,-1
 716 489 l 1,9,-1
 680 76 l 1,10,-1
 646 45 l 1,11,-1
 590 107 l 1,12,-1
 618 424 l 1,13,-1
 684 485 l 1,7,-1
631 31 m 1,14,-1
 597 0 l 1,15,-1
 132 0 l 1,16,-1
 103 31 l 1,17,-1
 171 93 l 1,18,-1
 574 93 l 1,19,-1
 631 31 l 1,14,-1
EndSplineSet
Validated: 1
EndChar

StartChar: v
Encoding: 118 118 65
Width: 816
GlyphClass: 2
Flags: W
LayerCount: 2
Fore
SplineSet
90 45 m 1,0,-1
 62 76 l 1,1,-1
 98 490 l 1,2,-1
 125 490 l 1,3,-1
 129 485 l 1,4,-1
 185 424 l 1,5,-1
 157 107 l 1,6,-1
 90 45 l 1,0,-1
131 515 m 1,7,-1
 127 510 l 1,8,-1
 100 510 l 1,9,-1
 136 924 l 1,10,-1
 170 955 l 1,11,-1
 226 893 l 1,12,-1
 198 576 l 1,13,-1
 131 515 l 1,7,-1
684 485 m 1,14,-1
 689 489 l 1,15,-1
 716 489 l 1,16,-1
 680 76 l 1,17,-1
 646 45 l 1,18,-1
 590 107 l 1,19,-1
 618 424 l 1,20,-1
 684 485 l 1,14,-1
726 955 m 1,21,-1
 754 924 l 1,22,-1
 718 510 l 1,23,-1
 691 510 l 1,24,-1
 687 514 l 1,25,-1
 631 575 l 1,26,-1
 659 893 l 1,27,-1
 726 955 l 1,21,-1
631 31 m 1,28,-1
 597 0 l 1,29,-1
 132 0 l 1,30,-1
 103 31 l 1,31,-1
 171 93 l 1,32,-1
 574 93 l 1,33,-1
 631 31 l 1,28,-1
EndSplineSet
Validated: 1
EndChar

StartChar: w
Encoding: 119 119 66
Width: 816
GlyphClass: 2
Flags: W
LayerCount: 2
Fore
SplineSet
90 45 m 1,0,-1
 62 76 l 1,1,-1
 98 490 l 1,2,-1
 125 490 l 1,3,-1
 129 485 l 1,4,-1
 185 424 l 1,5,-1
 157 107 l 1,6,-1
 90 45 l 1,0,-1
131 515 m 1,7,-1
 127 510 l 1,8,-1
 100 510 l 1,9,-1
 136 924 l 1,10,-1
 170 955 l 1,11,-1
 226 893 l 1,12,-1
 198 576 l 1,13,-1
 131 515 l 1,7,-1
671 499 m 1,14,-1
 620 453 l 1,15,-1
 620 454 l 1,16,-1
 188 454 l 1,17,-1
 188 453 l 1,18,-1
 144 500 l 1,19,-1
 196 547 l 1,20,-1
 196 546 l 1,21,-1
 628 546 l 1,22,-1
 671 499 l 1,14,-1
684 485 m 1,23,-1
 689 489 l 1,24,-1
 716 489 l 1,25,-1
 680 76 l 1,26,-1
 646 45 l 1,27,-1
 590 107 l 1,28,-1
 618 424 l 1,29,-1
 684 485 l 1,23,-1
726 955 m 1,30,-1
 754 924 l 1,31,-1
 718 510 l 1,32,-1
 691 510 l 1,33,-1
 687 514 l 1,34,-1
 631 575 l 1,35,-1
 659 893 l 1,36,-1
 726 955 l 1,30,-1
631 31 m 1,37,-1
 597 0 l 1,38,-1
 132 0 l 1,39,-1
 103 31 l 1,40,-1
 171 93 l 1,41,-1
 574 93 l 1,42,-1
 631 31 l 1,37,-1
EndSplineSet
Validated: 1
EndChar

StartChar: x
Encoding: 120 120 67
Width: 816
GlyphClass: 2
Flags: W
LayerCount: 2
Fore
SplineSet
90 45 m 1,0,-1
 62 76 l 1,1,-1
 98 490 l 1,2,-1
 125 490 l 1,3,-1
 129 485 l 1,4,-1
 185 424 l 1,5,-1
 157 107 l 1,6,-1
 90 45 l 1,0,-1
131 515 m 1,7,-1
 127 510 l 1,8,-1
 100 510 l 1,9,-1
 136 924 l 1,10,-1
 170 955 l 1,11,-1
 226 893 l 1,12,-1
 198 576 l 1,13,-1
 131 515 l 1,7,-1
671 499 m 1,14,-1
 620 453 l 1,15,-1
 620 454 l 1,16,-1
 188 454 l 1,17,-1
 188 453 l 1,18,-1
 144 500 l 1,19,-1
 196 547 l 1,20,-1
 196 546 l 1,21,-1
 628 546 l 1,22,-1
 671 499 l 1,14,-1
684 485 m 1,23,-1
 689 489 l 1,24,-1
 716 489 l 1,25,-1
 680 76 l 1,26,-1
 646 45 l 1,27,-1
 590 107 l 1,28,-1
 618 424 l 1,29,-1
 684 485 l 1,23,-1
726 955 m 1,30,-1
 754 924 l 1,31,-1
 718 510 l 1,32,-1
 691 510 l 1,33,-1
 687 514 l 1,34,-1
 631 575 l 1,35,-1
 659 893 l 1,36,-1
 726 955 l 1,30,-1
EndSplineSet
Validated: 1
EndChar

StartChar: y
Encoding: 121 121 68
Width: 816
GlyphClass: 2
Flags: W
LayerCount: 2
Fore
SplineSet
131 515 m 1,0,-1
 127 510 l 1,1,-1
 100 510 l 1,2,-1
 136 924 l 1,3,-1
 170 955 l 1,4,-1
 226 893 l 1,5,-1
 198 576 l 1,6,-1
 131 515 l 1,0,-1
671 499 m 1,7,-1
 620 453 l 1,8,-1
 620 454 l 1,9,-1
 188 454 l 1,10,-1
 188 453 l 1,11,-1
 144 500 l 1,12,-1
 196 547 l 1,13,-1
 196 546 l 1,14,-1
 628 546 l 1,15,-1
 671 499 l 1,7,-1
684 485 m 1,16,-1
 689 489 l 1,17,-1
 716 489 l 1,18,-1
 680 76 l 1,19,-1
 646 45 l 1,20,-1
 590 107 l 1,21,-1
 618 424 l 1,22,-1
 684 485 l 1,16,-1
726 955 m 1,23,-1
 754 924 l 1,24,-1
 718 510 l 1,25,-1
 691 510 l 1,26,-1
 687 514 l 1,27,-1
 631 575 l 1,28,-1
 659 893 l 1,29,-1
 726 955 l 1,23,-1
631 31 m 1,30,-1
 597 0 l 1,31,-1
 132 0 l 1,32,-1
 103 31 l 1,33,-1
 171 93 l 1,34,-1
 574 93 l 1,35,-1
 631 31 l 1,30,-1
EndSplineSet
Validated: 1
EndChar

StartChar: z
Encoding: 122 122 69
Width: 816
GlyphClass: 2
Flags: W
LayerCount: 2
Fore
SplineSet
90 45 m 1,0,-1
 62 76 l 1,1,-1
 98 490 l 1,2,-1
 125 490 l 1,3,-1
 129 485 l 1,4,-1
 185 424 l 1,5,-1
 157 107 l 1,6,-1
 90 45 l 1,0,-1
185 969 m 1,7,-1
 219 1000 l 1,8,-1
 684 1000 l 1,9,-1
 713 969 l 1,10,-1
 645 907 l 1,11,-1
 242 907 l 1,12,-1
 185 969 l 1,7,-1
726 955 m 1,13,-1
 754 924 l 1,14,-1
 718 510 l 1,15,-1
 691 510 l 1,16,-1
 687 514 l 1,17,-1
 631 575 l 1,18,-1
 659 893 l 1,19,-1
 726 955 l 1,13,-1
631 31 m 1,20,-1
 597 0 l 1,21,-1
 132 0 l 1,22,-1
 103 31 l 1,23,-1
 171 93 l 1,24,-1
 574 93 l 1,25,-1
 631 31 l 1,20,-1
EndSplineSet
Validated: 1
EndChar

StartChar: underscore
Encoding: 95 95 70
Width: 816
Flags: W
LayerCount: 2
Fore
SplineSet
631 31 m 1,0,-1
 597 0 l 1,1,-1
 132 0 l 1,2,-1
 103 31 l 1,3,-1
 171 93 l 1,4,-1
 574 93 l 1,5,-1
 631 31 l 1,0,-1
EndSplineSet
Validated: 1
EndChar

StartChar: equal
Encoding: 61 61 71
Width: 816
Flags: W
LayerCount: 2
Fore
SplineSet
671 499 m 1,0,-1
 620 453 l 1,1,-1
 620 454 l 1,2,-1
 188 454 l 1,3,-1
 188 453 l 1,4,-1
 144 500 l 1,5,-1
 196 547 l 1,6,-1
 196 546 l 1,7,-1
 628 546 l 1,8,-1
 671 499 l 1,0,-1
631 31 m 1,9,-1
 597 0 l 1,10,-1
 132 0 l 1,11,-1
 103 31 l 1,12,-1
 171 93 l 1,13,-1
 574 93 l 1,14,-1
 631 31 l 1,9,-1
EndSplineSet
Validated: 1
EndChar

StartChar: less
Encoding: 60 60 72
Width: 816
Flags: W
LayerCount: 2
Fore
SplineSet
631 31 m 1,0,-1
 597 0 l 1,1,-1
 132 0 l 1,2,-1
 103 31 l 1,3,-1
 171 93 l 1,4,-1
 574 93 l 1,5,-1
 631 31 l 1,0,-1
EndSplineSet
Validated: 1
EndChar

StartChar: greater
Encoding: 62 62 73
Width: 816
Flags: W
LayerCount: 2
Fore
SplineSet
185 969 m 1,0,-1
 219 1000 l 1,1,-1
 684 1000 l 1,2,-1
 713 969 l 1,3,-1
 645 907 l 1,4,-1
 242 907 l 1,5,-1
 185 969 l 1,0,-1
671 499 m 1,6,-1
 620 453 l 1,7,-1
 620 454 l 1,8,-1
 188 454 l 1,9,-1
 188 453 l 1,10,-1
 144 500 l 1,11,-1
 196 547 l 1,12,-1
 196 546 l 1,13,-1
 628 546 l 1,14,-1
 671 499 l 1,6,-1
631 31 m 1,15,-1
 597 0 l 1,16,-1
 132 0 l 1,17,-1
 103 31 l 1,18,-1
 171 93 l 1,19,-1
 574 93 l 1,20,-1
 631 31 l 1,15,-1
EndSplineSet
Validated: 1
EndChar

StartChar: question
Encoding: 63 63 74
Width: 816
Flags: W
LayerCount: 2
Fore
SplineSet
185 969 m 1,0,-1
 219 1000 l 1,1,-1
 684 1000 l 1,2,-1
 713 969 l 1,3,-1
 645 907 l 1,4,-1
 242 907 l 1,5,-1
 185 969 l 1,0,-1
EndSplineSet
Validated: 1
EndChar
